<?xml version="1.0" encoding="utf-8"?>
<!-- Generator: Adobe Illustrator 26.3.1, SVG Export Plug-In . SVG Version: 6.00 Build 0)  -->
<svg version="1.1" id="Layer_1" xmlns="http://www.w3.org/2000/svg" xmlns:xlink="http://www.w3.org/1999/xlink" x="0px" y="0px"
	 viewBox="0 0 512 408" style="enable-background:new 0 0 512 408;" xml:space="preserve">
<style type="text/css">
	.st0{fill:#28B5C8;}
</style>
<g>
	<g>
		<path class="st0" d="M411.8,243.5c23.9,16.1,43.5,52.9,43.5,81.8V404l-355-239.5c-23.9-16.1-43.5-52.9-43.5-81.8V4L411.8,243.5z"
			/>
		<path class="st0" d="M200.5,275.8c19.9,13.4,36.2,44.1,36.2,68.1v62.8L93,309.8c-19.9-13.4-36.2-44.1-36.2-68.2v-62.8L200.5,275.8
			z"/>
		<path class="st0" d="M419,98.2c19.9,13.4,36.2,44.1,36.2,68.2v62.8l-143.7-96.9c-19.9-13.4-36.2-44.1-36.2-68.1V1.3L419,98.2z"/>
	</g>
</g>
</svg>
